<?xml version="1.0" encoding="iso-8859-1"?>
<!-- Generator: Adobe Illustrator 19.0.0, SVG Export Plug-In . SVG Version: 6.00 Build 0)  -->
<svg version="1.1" id="Capa_1" xmlns="http://www.w3.org/2000/svg" xmlns:xlink="http://www.w3.org/1999/xlink" x="0px" y="0px"
	 viewBox="0 0 512.001 512.001" style="enable-background:new 0 0 512.001 512.001;" xml:space="preserve">
<path style="fill:#A5C8CD;" d="M202.415,244.898l-26.076-49.534c-2.488-4.726-0.674-10.574,4.052-13.062
	c4.725-2.488,10.574-0.674,13.062,4.053l26.076,49.534c2.488,4.726,0.674,10.574-4.052,13.062
	C210.74,251.445,204.896,249.614,202.415,244.898z"/>
<g>
	<path style="fill:#73C8F0;" d="M258.201,226.18c-0.627,20.994,16.214,38.044,36.9,38.044c20.673,0,37.528-17.036,36.9-38.044
		L258.201,226.18L258.201,226.18z"/>
	<path style="fill:#73C8F0;" d="M174.071,226.18c-0.627,20.994,16.214,38.044,36.9,38.044c20.673,0,37.528-17.036,36.9-38.044
		L174.071,226.18L174.071,226.18z"/>
</g>
<path style="fill:#69280F;" d="M260.622,435.241c-7.974,0-14.437-6.464-14.437-14.437V272.143c0-7.974,6.464-14.437,14.437-14.437
	c7.974,0,14.437,6.464,14.437,14.437v148.661C275.06,428.777,268.596,435.241,260.622,435.241z"/>
<g>
	<path style="fill:#823214;" d="M343.815,286.581H177.431c-7.974,0-14.437-6.464-14.437-14.437c0-7.974,6.464-14.437,14.437-14.437
		h166.384c7.974,0,14.437,6.464,14.437,14.437C358.252,280.116,351.788,286.581,343.815,286.581z"/>
	<path style="fill:#823214;" d="M294.811,441.305h-68.377c-7.974,0-14.437-6.464-14.437-14.437c0-7.974,6.464-14.437,14.437-14.437
		h68.377c7.974,0,14.437,6.464,14.437,14.437C309.249,434.841,302.785,441.305,294.811,441.305z"/>
</g>
<g>
	<path style="fill:#69280F;" d="M43.229,440.168c-5.348,0-9.683-4.335-9.683-9.683v-96.794c0-5.348,4.335-9.683,9.683-9.683
		s9.683,4.335,9.683,9.683v96.794C52.912,435.832,48.577,440.168,43.229,440.168z"/>
	<path style="fill:#69280F;" d="M146.252,396.6H43.229c-5.348,0-9.683-4.335-9.683-9.683s4.335-9.683,9.683-9.683h103.024
		c5.348,0,9.683,4.335,9.683,9.683S151.6,396.6,146.252,396.6z"/>
	<path style="fill:#69280F;" d="M155.292,435.204L118.97,341.57c-1.893-4.908,0.552-10.421,5.46-12.314
		c4.907-1.893,10.422,0.551,12.314,5.46l36.322,93.634c1.893,4.908-0.552,10.421-5.46,12.314
		C162.729,442.546,157.197,440.145,155.292,435.204z"/>
</g>
<path style="fill:#823214;" d="M143.492,342.512H40.508c-6.152,0-11.445-4.353-12.632-10.39L0.244,191.551
	c-1.371-6.976,3.173-13.744,10.149-15.115c6.976-1.368,13.743,3.172,15.115,10.149l25.59,130.181h92.394
	c7.11,0,12.873,5.764,12.873,12.873S150.601,342.512,143.492,342.512z"/>
<path style="fill:#55879B;" d="M191.718,274.277h-48.542l1.3-82.551c0.213-13.555-10.716-24.658-24.273-24.658H82.139
	c-13.433,0-24.312,10.909-24.275,24.342l0.264,96.245c0.043,15.584,12.061,29.337,29.911,29.206h54.467l0.001-0.031h18.321
	l-37.99,95.363c-4.324,10.926,1.029,23.289,11.955,27.613c10.928,4.324,23.29-1.032,27.612-11.956l49.507-124.468
	C217.288,289.794,207.686,274.277,191.718,274.277z"/>
<circle style="fill:#FFB69E;" cx="116.83" cy="110.187" r="39.13"/>
<path style="fill:#414B82;" d="M192.128,274.277h-48.952l-84.939,15.741c1.166,14.121,12.069,26.146,28.156,26.812
	c0,0,63.093,0,74.435,0l-37.99,95.364c-4.324,10.926,1.029,23.289,11.955,27.612c10.92,4.319,23.286-1.023,27.612-11.955
	l49.507-124.469C217.439,289.412,207.105,274.277,192.128,274.277z"/>
<path style="fill:#FFB69E;" d="M126.547,257.146l-40.194-56.108c-5.644-7.878-3.832-18.84,4.046-24.484s18.839-3.832,24.484,4.046
	l29.937,41.79l44.589-32.193c7.858-5.673,18.827-3.901,24.499,3.955c5.673,7.857,3.902,18.826-3.955,24.499l-58.869,42.503
	C143.208,266.84,132.205,265.042,126.547,257.146z"/>
<path style="fill:#87AFB9;" d="M135.83,209.84l-20.946-29.24c-5.645-7.878-16.606-9.69-24.484-4.046
	c-7.879,5.644-9.69,16.605-4.046,24.483c3.063,4.276,16.549,23.101,21.249,29.662L135.83,209.84z"/>
<path style="fill:#A5C8CD;" d="M316.368,185.174c-2.475,0-4.951-0.944-6.838-2.833c-3.777-3.777-3.777-9.9,0.001-13.676
	l45.752-45.746c3.777-3.776,9.901-3.776,13.676,0.001c3.777,3.777,3.777,9.9-0.001,13.676l-45.752,45.746
	C321.318,184.23,318.843,185.174,316.368,185.174z"/>
<g>
	<path style="fill:#69280F;" d="M468.433,440.159c5.39,0,9.759-4.369,9.759-9.759v-97.551c0-5.39-4.369-9.759-9.759-9.759
		s-9.759,4.369-9.759,9.759V430.4C458.675,435.79,463.044,440.159,468.433,440.159z"/>
	<path style="fill:#69280F;" d="M364.604,396.251h103.829c5.39,0,9.759-4.369,9.759-9.759s-4.369-9.759-9.759-9.759H364.604
		c-5.39,0-9.759,4.369-9.759,9.759S359.215,396.251,364.604,396.251z"/>
	<path style="fill:#69280F;" d="M355.494,435.156l36.606-94.367c1.908-4.946-0.556-10.503-5.502-12.41
		c-4.945-1.908-10.503,0.555-12.41,5.502l-36.606,94.367c-1.908,4.946,0.556,10.503,5.502,12.41
		C347.998,442.555,353.574,440.135,355.494,435.156z"/>
</g>
<path style="fill:#823214;" d="M367.387,341.74h103.789c6.201,0,11.535-4.388,12.731-10.471l27.848-141.67
	c1.382-7.031-3.198-13.851-10.228-15.233c-7.03-1.379-13.851,3.197-15.233,10.228l-25.79,131.199h-93.116
	c-7.165,0-12.974,5.809-12.974,12.974S360.221,341.74,367.387,341.74z"/>
<path style="fill:#FF3C3C;" d="M318.783,272.971h48.922l-1.31-83.196c-0.215-13.661,10.8-24.851,24.462-24.851h38.362
	c13.538,0,24.502,10.994,24.465,24.532l-0.266,96.998c-0.043,15.706-12.155,29.567-30.145,29.434H368.38l-0.001-0.032h-18.465
	l38.287,96.109c4.358,11.012-1.037,23.471-12.049,27.829c-11.013,4.358-23.472-1.04-27.828-12.049L298.43,302.304
	C293.013,288.609,302.69,272.971,318.783,272.971z"/>
<circle style="fill:#BA6746;" cx="400.59" cy="110.137" r="39.44"/>
<path style="fill:#414B82;" d="M318.37,272.971h49.335l85.603,15.864c-1.176,14.232-12.163,26.35-28.376,27.021H368.38l0,0h-18.465
	l0,0l0,0l38.287,96.109c4.358,11.011-1.037,23.471-12.049,27.828c-11.006,4.353-23.468-1.03-27.828-12.049l-49.894-125.442
	C292.861,288.225,303.275,272.971,318.37,272.971z"/>
<path style="fill:#BA6746;" d="M342.349,241.931l-32.292-69.256c-4.096-8.783-0.295-19.224,8.488-23.319
	c8.784-4.096,19.224-0.295,23.319,8.488l22.746,48.783l37.29-30.539c7.499-6.141,18.553-5.04,24.694,2.457
	c6.14,7.498,5.04,18.554-2.457,24.694l-54.766,44.852C360.552,255.313,347.207,252.35,342.349,241.931z"/>
<path style="fill:#FF6248;" d="M426.594,178.545c-6.141-7.497-17.196-8.598-24.694-2.457l-26.782,21.934l21.178,28.018l27.84-22.801
	C431.634,197.098,432.734,186.043,426.594,178.545z"/>
<g>
</g>
<g>
</g>
<g>
</g>
<g>
</g>
<g>
</g>
<g>
</g>
<g>
</g>
<g>
</g>
<g>
</g>
<g>
</g>
<g>
</g>
<g>
</g>
<g>
</g>
<g>
</g>
<g>
</g>
</svg>
