<?xml version="1.0" encoding="iso-8859-1"?>
<!-- Generator: Adobe Illustrator 19.0.0, SVG Export Plug-In . SVG Version: 6.00 Build 0)  -->
<svg version="1.1" id="Capa_1" xmlns="http://www.w3.org/2000/svg" xmlns:xlink="http://www.w3.org/1999/xlink" x="0px" y="0px"
	 viewBox="0 0 512 512" style="enable-background:new 0 0 512 512;" xml:space="preserve">
<path style="fill:#FFCCAA;" d="M77.978,275.272l-2.743-0.999c-11.135-4.053-19.609-13.26-22.726-24.693l-13.052-47.87
	c-0.899-3.299-0.754-6.795,0.415-10.008l19.522-53.637c4.641-12.75,18.738-19.324,31.488-14.683l0.557,0.203l11.766-32.327
	c3.689-10.136,14.896-15.362,25.032-11.673l0,0c10.136,3.689,15.362,14.896,11.673,25.032l1.643-4.513
	c3.689-10.136,14.896-15.362,25.032-11.673l0,0c10.136,3.689,15.362,14.896,11.672,25.032l-4.599,12.636
	c3.689-10.136,14.896-15.362,25.032-11.673l0,0c10.136,3.689,15.362,14.896,11.673,25.032l-3.942,10.831
	c3.689-10.136,14.896-15.362,25.032-11.673l0,0c10.136,3.689,15.362,14.896,11.673,25.032l-2.193,6.025
	c-4.432,12.176-41.385,113.705-47.843,131.447c-2.849,7.827-11.503,11.862-19.33,9.014c-2.952-1.075-6.216,0.448-7.291,3.4
	l-43.7,120.065l-90.436-32.916L77.978,275.272z"/>
<g>
	<path style="fill:#F2A077;" d="M231.452,138.616L231.452,138.616c-3.793-1.381-7.735-1.512-11.378-0.605
		c3.075,4.852,3.853,11.466,1.544,17.809l-2.193,6.025c-4.325,11.884-41.623,114.359-47.843,131.447
		c-2.849,7.827-10.703,12.153-17.542,9.664c-2.58-0.939-5.542,0.693-6.616,3.645l-43.7,120.065l-71.392-25.985l0,0l90.436,32.916
		l43.7-120.065c1.075-2.952,4.339-4.474,7.291-3.4c7.827,2.849,16.481-1.187,19.33-9.014c6.209-17.06,43.524-119.58,47.843-131.447
		l2.193-6.025C246.814,153.513,241.589,142.305,231.452,138.616z"/>
	<path style="fill:#F2A077;" d="M67.833,169.92c0.692,0.251,1.398,0.371,2.094,0.371c2.501,0,4.849-1.544,5.754-4.03l15.56-42.749
		l-0.358-0.13c-4.044-1.472-8.223-1.812-12.194-1.188l-14.515,39.879C63.018,165.25,64.656,168.763,67.833,169.92z"/>
</g>
<g>
	<path style="fill:#1687C4;" d="M46.76,339.244c-0.852,0-1.718-0.146-2.565-0.454L4.936,324.5c-3.892-1.417-5.899-5.721-4.482-9.613
		s5.72-5.894,9.613-4.482l39.26,14.29c3.892,1.417,5.899,5.721,4.482,9.613C52.7,337.353,49.823,339.244,46.76,339.244z"/>
	<path style="fill:#1687C4;" d="M10.061,368.222c-2.825,0-5.53-1.604-6.802-4.332c-1.75-3.755-0.126-8.217,3.628-9.967
		l36.732-17.129c3.752-1.75,8.216-0.126,9.967,3.628c1.75,3.755,0.126,8.217-3.628,9.967l-36.732,17.129
		C12.201,367.995,11.122,368.222,10.061,368.222z"/>
</g>
<path style="fill:#2BB4F3;" d="M144.529,388.755L44.488,352.343c-4.502-1.639-6.824-6.617-5.185-11.119l7.839-21.539
	c1.639-4.502,6.617-6.824,11.119-5.185l100.041,36.412c4.502,1.639,6.824,6.617,5.185,11.119l-7.839,21.539
	C154.009,388.072,149.031,390.393,144.529,388.755z"/>
<g>
	<path style="fill:#EBEAE6;" d="M44.487,352.343l14.498,5.277l36.149-25.099c1.322-0.918,2.253-2.188,2.764-3.594l-15.673-5.705
		l-36.142,25.094c-1.295,0.9-2.217,2.135-2.735,3.506C43.712,352.017,44.088,352.197,44.487,352.343z"/>
	<path style="fill:#EBEAE6;" d="M126.566,343.961c1.322-0.918,2.253-2.188,2.764-3.594l-15.673-5.705l-36.142,25.094
		c-1.325,0.92-2.255,2.192-2.766,3.601l15.668,5.703L126.566,343.961z"/>
	<path style="fill:#EBEAE6;" d="M157.998,355.402c1.205-0.837,2.081-1.966,2.616-3.223c-0.684-0.524-1.458-0.956-2.311-1.266
		l-13.214-4.81l-36.142,25.094c-1.325,0.92-2.255,2.192-2.766,3.601l15.668,5.703L157.998,355.402z"/>
</g>
<path style="fill:#FFCCAA;" d="M434.021,275.272l2.743-0.999c11.135-4.053,19.609-13.26,22.726-24.693l13.051-47.871
	c0.899-3.299,0.754-6.795-0.415-10.008l-19.522-53.637c-4.641-12.75-18.738-19.324-31.488-14.683l-0.557,0.203l-11.766-32.327
	c-3.689-10.136-14.896-15.362-25.032-11.673l0,0c-10.136,3.689-15.362,14.896-11.673,25.032l-1.643-4.513
	c-3.689-10.136-14.896-15.362-25.032-11.673l0,0c-10.136,3.689-15.362,14.896-11.672,25.032l4.599,12.636
	c-3.689-10.136-14.896-15.362-25.032-11.673l0,0c-10.136,3.689-15.362,14.896-11.673,25.032l3.942,10.831
	c-3.689-10.136-14.896-15.362-25.032-11.673l0,0c-10.136,3.689-15.362,14.896-11.673,25.032l2.193,6.025L318.91,301.12
	c2.849,7.827,11.503,11.862,19.33,9.014c2.952-1.075,6.216,0.448,7.291,3.4l43.7,120.065l90.436-32.916L434.021,275.272z"/>
<path style="fill:#F2A077;" d="M434.021,275.272l2.743-0.999c11.135-4.053,19.609-13.26,22.726-24.693l13.051-47.871
	c0.899-3.299,0.754-6.795-0.415-10.008l-19.522-53.637c-4.641-12.75-18.738-19.324-31.488-14.683l-0.557,0.203l26.421,68.799
	c1.17,3.213,1.444,6.663,0.785,9.874l-9.556,46.599c-2.282,11.129-9.4,19.842-19.089,23.369c-1.318,0.48-1.995,1.938-1.513,3.254
	l47.781,130.401l14.279-5.197L434.021,275.272z"/>
<path style="fill:#D7875F;" d="M414.372,106.956l21.828,59.97c0.914,2.51,3.285,4.07,5.811,4.07c0.702,0,1.416-0.121,2.114-0.374
	c3.209-1.168,4.863-4.716,3.695-7.925l-14.756-40.542c-3.897-0.572-7.988-0.214-11.949,1.227l-0.557,0.203l-6.495-17.844
	C414.125,106.147,414.227,106.554,414.372,106.956z"/>
<g>
	<path style="fill:#CE3A4C;" d="M457.216,342.164c-3.063,0-5.939-1.892-7.048-4.936c-1.417-3.893,0.59-8.196,4.483-9.613
		l47.282-17.21c3.894-1.416,8.196,0.591,9.613,4.482c1.416,3.893-0.59,8.196-4.483,9.613l-47.282,17.21
		C458.933,342.018,458.066,342.164,457.216,342.164z"/>
	<path style="fill:#CE3A4C;" d="M501.938,368.222c-1.062,0-2.139-0.227-3.165-0.705l-37.133-17.315
		c-3.754-1.75-5.378-6.212-3.628-9.967c1.751-3.754,6.214-5.378,9.967-3.627l37.133,17.315c3.754,1.75,5.378,6.212,3.628,9.967
		C507.467,366.618,504.762,368.222,501.938,368.222z"/>
</g>
<path style="fill:#FF5A59;" d="M367.47,388.755l100.041-36.412c4.502-1.639,6.824-6.617,5.185-11.119l-7.839-21.539
	c-1.639-4.502-6.617-6.824-11.119-5.185l-100.041,36.412c-4.502,1.639-6.824,6.617-5.185,11.119l7.839,21.539
	C357.99,388.072,362.967,390.393,367.47,388.755z"/>
<g>
	<path style="fill:#EBEAE6;" d="M405.818,374.797c-0.511-1.409-1.442-2.681-2.766-3.601l-36.142-25.094l-13.214,4.81
		c-0.853,0.31-1.627,0.742-2.311,1.266c0.534,1.257,1.411,2.386,2.616,3.223L390.15,380.5L405.818,374.797z"/>
	<path style="fill:#EBEAE6;" d="M434.484,359.756l-36.142-25.094l-15.673,5.705c0.511,1.406,1.441,2.676,2.764,3.594l36.149,25.098
		l15.668-5.703C436.739,361.948,435.809,360.676,434.484,359.756z"/>
	<path style="fill:#EBEAE6;" d="M468.65,351.822c-0.518-1.372-1.439-2.607-2.735-3.506l-36.142-25.094l-15.673,5.705
		c0.511,1.406,1.441,2.676,2.764,3.594l36.149,25.099l14.498-5.277C467.911,352.197,468.286,352.017,468.65,351.822z"/>
</g>
<g>
</g>
<g>
</g>
<g>
</g>
<g>
</g>
<g>
</g>
<g>
</g>
<g>
</g>
<g>
</g>
<g>
</g>
<g>
</g>
<g>
</g>
<g>
</g>
<g>
</g>
<g>
</g>
<g>
</g>
</svg>
